<svg xmlns="http://www.w3.org/2000/svg" viewBox="0 0 272 200" role="img" aria-label="Yarn ball sunglasses logo">
  <title>Yarn ball sunglasses logo</title>
  <g fill="#000000" fill-rule="evenodd">
    <path d="M 263 180 L 259 177 L 254 176 L 245 177 L 235 181 L 226 181 L 221 179 L 219 177 L 229 171 L 236 163 L 235 154 L 228 150 L 219 151 L 211 157 L 209 161 L 209 172 L 210 173 L 209 175 L 194 174 L 188 171 L 183 166 L 181 159 L 193 142 L 199 129 L 202 118 L 202 113 L 204 107 L 204 97 L 203 93 L 201 91 L 200 92 L 200 112 L 198 116 L 198 120 L 192 132 L 192 135 L 185 148 L 180 153 L 179 152 L 180 133 L 178 133 L 176 139 L 176 159 L 164 170 L 153 178 L 135 185 L 125 186 L 124 187 L 119 187 L 118 186 L 134 176 L 145 165 L 151 157 L 158 143 L 157 139 L 146 158 L 132 173 L 123 179 L 108 186 L 102 186 L 101 187 L 100 186 L 95 186 L 86 183 L 84 180 L 100 172 L 113 163 L 135 141 L 138 136 L 136 134 L 108 162 L 93 171 L 89 175 L 79 178 L 73 178 L 68 174 L 66 170 L 66 165 L 68 163 L 70 163 L 79 158 L 96 146 L 110 132 L 116 122 L 113 121 L 106 131 L 88 148 L 76 156 L 67 159 L 66 158 L 67 151 L 72 140 L 74 138 L 74 136 L 71 136 L 68 140 L 64 149 L 63 155 L 61 157 L 56 155 L 41 146 L 42 142 L 46 138 L 45 135 L 37 143 L 35 143 L 29 139 L 21 131 L 18 125 L 18 107 L 17 106 L 16 107 L 14 116 L 12 113 L 13 103 L 10 102 L 8 108 L 9 118 L 15 129 L 16 137 L 20 146 L 32 159 L 34 170 L 41 177 L 57 183 L 76 182 L 83 186 L 92 189 L 109 189 L 118 191 L 119 190 L 129 190 L 144 186 L 155 181 L 170 170 L 176 164 L 178 164 L 182 171 L 189 176 L 202 179 L 213 178 L 223 184 L 238 184 L 248 180 L 257 180 L 261 182 Z M 37 163 L 39 162 L 46 165 L 61 165 L 63 167 L 64 174 L 67 179 L 66 180 L 60 180 L 51 178 L 46 175 L 42 175 L 37 167 Z M 229 155 L 232 158 L 232 163 L 224 171 L 216 174 L 213 170 L 213 163 L 215 159 L 218 156 L 223 154 Z M 37 153 L 39 150 L 41 150 L 43 152 L 56 158 L 59 161 L 58 162 L 43 161 L 37 157 Z M 22 137 L 35 147 L 34 152 L 32 154 L 24 145 L 21 139 Z M 195 84 L 190 81 L 181 81 L 180 80 L 147 80 L 124 85 L 114 90 L 97 90 L 92 87 L 75 83 L 44 82 L 43 83 L 35 83 L 34 84 L 17 86 L 15 88 L 15 93 L 20 95 L 23 98 L 23 101 L 29 114 L 36 123 L 49 131 L 68 132 L 80 128 L 89 121 L 94 114 L 99 101 L 104 98 L 111 99 L 113 101 L 120 116 L 128 124 L 134 128 L 142 131 L 160 131 L 170 127 L 180 118 L 186 106 L 189 94 L 195 89 Z M 126 92 L 121 96 L 118 95 L 121 92 L 124 91 Z M 72 90 L 73 89 L 76 90 L 75 91 Z M 182 88 L 184 90 L 182 103 L 177 113 L 172 118 L 171 116 L 176 108 L 179 99 L 180 90 Z M 178 72 L 175 67 L 166 58 L 154 51 L 146 49 L 144 51 L 151 55 L 138 60 L 127 67 L 116 79 L 119 80 L 131 69 L 145 61 L 152 59 L 154 56 L 159 57 L 167 63 L 175 74 L 177 74 Z M 14 69 L 14 74 L 17 78 L 18 77 L 18 70 L 23 62 L 29 67 L 39 67 L 45 65 L 55 60 L 60 56 L 71 51 L 91 37 L 103 32 L 113 26 L 141 19 L 150 20 L 160 25 L 170 34 L 172 38 L 170 39 L 165 37 L 152 36 L 151 37 L 144 37 L 130 40 L 110 50 L 106 50 L 74 66 L 50 74 L 47 77 L 52 78 L 103 56 L 104 57 L 89 73 L 88 76 L 90 77 L 99 66 L 110 57 L 110 53 L 113 50 L 148 40 L 163 40 L 178 46 L 186 56 L 192 73 L 194 72 L 194 64 L 191 56 L 178 43 L 178 40 L 173 32 L 160 21 L 150 17 L 140 17 L 131 12 L 117 8 L 95 8 L 90 10 L 78 12 L 72 15 L 63 23 L 49 27 L 38 34 L 31 41 L 26 50 L 25 55 L 18 61 Z M 55 31 L 43 44 L 35 49 L 32 48 L 35 42 L 42 35 L 52 30 Z M 130 16 L 127 19 L 118 21 L 106 27 L 99 27 L 95 25 L 85 24 L 84 23 L 74 23 L 71 26 L 81 26 L 82 27 L 93 28 L 96 31 L 90 35 L 82 38 L 72 46 L 56 56 L 33 64 L 31 64 L 28 61 L 28 58 L 34 52 L 50 43 L 71 21 L 77 17 L 84 14 L 100 12 L 101 11 L 119 12 Z"/>
  </g>
</svg>
